<svg xmlns="http://www.w3.org/2000/svg" xmlns:xlink="http://www.w3.org/1999/xlink" width="70" zoomAndPan="magnify" viewBox="0 0 52.5 52.499999" height="70" preserveAspectRatio="xMidYMid meet" version="1.0"><defs><clipPath id="15ec359418"><path d="M 0 0 L 52.003906 0 L 52.003906 52.003906 L 0 52.003906 Z M 0 0 " clip-rule="nonzero"/></clipPath></defs><g clip-path="url(#15ec359418)"><path fill="#ffffff" d="M 47.253906 5.25 L 47.253906 0 L 36.753906 0 L 36.753906 5.25 L 31.503906 5.25 L 31.503906 0 L 21 0 L 21 5.25 L 15.753906 5.25 L 15.753906 0 L 5.25 0 L 5.25 5.25 L 0 5.25 L 0 5.253906 L 5.25 10.5 L 21 10.5 L 21 47.253906 L 21.003906 47.253906 L 26.253906 52.503906 L 31.503906 47.253906 L 31.503906 10.5 L 47.253906 10.5 L 52.503906 5.253906 L 52.503906 5.25 Z M 47.253906 5.25 " fill-opacity="1" fill-rule="nonzero"/></g><path fill="#ffffff" d="M 36.753906 15.753906 L 36.753906 42.003906 L 47.253906 31.503906 L 47.253906 15.753906 Z M 36.753906 15.753906 " fill-opacity="1" fill-rule="nonzero"/><path fill="#ffffff" d="M 10.496094 15.753906 L 5.25 15.753906 L 5.25 31.503906 L 5.253906 31.503906 L 10.5 36.753906 L 15.75 42.003906 L 15.753906 42.003906 L 15.753906 15.753906 Z M 10.496094 15.753906 " fill-opacity="1" fill-rule="nonzero"/></svg>